#N canvas 401 158 750 607 12;
#X obj 60 105 adc~ 3 4 5;
#X obj 61 536 netsend -u;
#X obj 345 105 loadbang;
#X obj 61 395 snapshot~;
#X obj 136 395 snapshot~;
#X obj 216 390 snapshot~;
#X obj 217 226 lop~;
#X obj 136 228 lop~;
#X obj 60 225 lop~;
#X obj 61 457 pack f f f;
#X obj 60 286 clip~ 0 1;
#X obj 135 312 clip~ 0 1;
#X obj 217 338 clip~ 0 1;
#X msg 242 157 50;
#X msg 345 509 connect 192.168.6.1 8001;
#X text 377 470 IP address may have to be changed to 192.186.7.1 on
Mac OSX computers, f 39;
#X text 527 510 Windows IP address;
#X obj 60 257 sfapdlib/scalesiglin~ 0.31 0.52 0 1;
#X obj 135 288 sfapdlib/scalesiglin~ 0.31 0.52 0 1;
#X obj 217 314 sfapdlib/scalesiglin~ 0.31 0.52 0 1;
#X obj 366 158 metro 50;
#X text 296 389 sample accelerometer data every 50ms and send to computer
via UDP, f 35;
#X text 59 50 Run this patch on Bela and train the regression model
with the train.pd patch running on the computer;
#X text 60 16 Saxelerophone: training the regression model;
#X text 60 32 ============================================;
#X text 268 219 smooth accelrometer data and scale to the range 0-1
, f 39;
#X connect 0 0 8 0;
#X connect 0 1 7 0;
#X connect 0 2 6 0;
#X connect 2 0 14 0;
#X connect 2 0 13 0;
#X connect 2 0 20 0;
#X connect 3 0 9 0;
#X connect 4 0 9 1;
#X connect 5 0 9 2;
#X connect 6 0 19 0;
#X connect 7 0 18 0;
#X connect 8 0 17 0;
#X connect 9 0 1 0;
#X connect 10 0 3 0;
#X connect 11 0 4 0;
#X connect 12 0 5 0;
#X connect 13 0 6 1;
#X connect 13 0 7 1;
#X connect 13 0 8 1;
#X connect 14 0 1 0;
#X connect 17 0 10 0;
#X connect 18 0 11 0;
#X connect 19 0 12 0;
#X connect 20 0 3 0;
#X connect 20 0 4 0;
#X connect 20 0 5 0;
